<svg width="38" height="38" viewBox="0 0 38 38" fill="none" xmlns="http://www.w3.org/2000/svg">
<g clip-path="url(#clip0_1238_845)">
<path d="M18.4271 7.39335e-09C14.289 -0.000113887 10.2612 1.31568 6.94162 3.75204C3.62205 6.18841 1.18771 9.61544 0 13.5244C0.233263 13.412 0.491703 13.3599 0.750983 13.3732C1.01026 13.3865 1.26185 13.4646 1.48206 13.6002C1.70226 13.7359 1.88384 13.9245 2.00968 14.1485C2.13553 14.3724 2.20151 14.6242 2.2014 14.8803V25.8593C2.20176 26.1778 2.09988 26.4882 1.91037 26.7461C1.72086 27.004 1.45344 27.1961 1.14642 27.2949C2.65379 30.3355 4.95878 32.9228 7.82222 34.7885C10.6857 36.6543 14.0032 37.7304 17.4307 37.9053C20.8582 38.0802 24.2707 37.3475 27.3141 35.7831C30.3575 34.2188 32.921 31.8799 34.7386 29.009C36.5561 26.1382 37.5616 22.84 37.6505 19.4567C37.7394 16.0735 36.9086 12.7284 35.2443 9.76854C33.58 6.8087 31.1429 4.34195 28.1857 2.62424C25.2286 0.906527 21.8591 0.000443274 18.4271 7.39335e-09V7.39335e-09ZM6.73081 26.9794C6.71195 27.3674 6.54236 27.7334 6.25722 28.0014C5.97207 28.2694 5.59325 28.4189 5.19932 28.4189C4.80539 28.4189 4.42657 28.2694 4.14142 28.0014C3.85628 27.7334 3.68669 27.3674 3.66783 26.9794V10.7501C3.68669 10.3621 3.85628 9.99615 4.14142 9.72812C4.42657 9.46009 4.80539 9.31057 5.19932 9.31057C5.59325 9.31057 5.97207 9.46009 6.25722 9.72812C6.54236 9.99615 6.71195 10.3621 6.73081 10.7501V26.9794ZM11.1899 30.5165C11.171 30.9045 11.0014 31.2705 10.7163 31.5385C10.4311 31.8066 10.0523 31.9561 9.65839 31.9561C9.26446 31.9561 8.88564 31.8066 8.60049 31.5385C8.31535 31.2705 8.14576 30.9045 8.1269 30.5165V7.40026C8.14576 7.01224 8.31535 6.64627 8.60049 6.37824C8.88564 6.11021 9.26446 5.96069 9.65839 5.96069C10.0523 5.96069 10.4311 6.11021 10.7163 6.37824C11.0014 6.64627 11.171 7.01224 11.1899 7.40026V30.5165ZM15.7158 28.1272C15.7257 28.3316 15.6935 28.5359 15.621 28.7277C15.5485 28.9194 15.4373 29.0947 15.2941 29.2428C15.1509 29.3909 14.9787 29.5089 14.7879 29.5894C14.5972 29.67 14.3918 29.7116 14.1843 29.7116C13.9767 29.7116 13.7714 29.67 13.5806 29.5894C13.3898 29.5089 13.2176 29.3909 13.0745 29.2428C12.9313 29.0947 12.8201 28.9194 12.7476 28.7277C12.6751 28.5359 12.6429 28.3316 12.6528 28.1272V11.9049C12.6717 11.5169 12.8412 11.1509 13.1264 10.8829C13.4115 10.6149 13.7903 10.4653 14.1843 10.4653C14.5782 10.4653 14.957 10.6149 15.2422 10.8829C15.5273 11.1509 15.6969 11.5169 15.7158 11.9049V28.1272ZM19.9744 24.3508C19.9555 24.7388 19.7859 25.1048 19.5008 25.3728C19.2157 25.6408 18.8368 25.7904 18.4429 25.7904C18.049 25.7904 17.6701 25.6408 17.385 25.3728C17.0999 25.1048 16.9303 24.7388 16.9114 24.3508V13.3787C16.9303 12.9907 17.0999 12.6247 17.385 12.3567C17.6701 12.0887 18.049 11.9392 18.4429 11.9392C18.8368 11.9392 19.2157 12.0887 19.5008 12.3567C19.7859 12.6247 19.9555 12.9907 19.9744 13.3787V24.3508ZM24.1029 22.0482C24.1128 22.2526 24.0806 22.4569 24.0081 22.6486C23.9356 22.8404 23.8244 23.0156 23.6812 23.1638C23.538 23.3119 23.3658 23.4298 23.1751 23.5104C22.9843 23.591 22.7789 23.6325 22.5714 23.6325C22.3639 23.6325 22.1585 23.591 21.9677 23.5104C21.777 23.4298 21.6048 23.3119 21.4616 23.1638C21.3184 23.0156 21.2072 22.8404 21.1347 22.6486C21.0622 22.4569 21.03 22.2526 21.0399 22.0482V17.4187C21.0588 17.0307 21.2284 16.6647 21.5135 16.3967C21.7987 16.1286 22.1775 15.9791 22.5714 15.9791C22.9653 15.9791 23.3442 16.1286 23.6293 16.3967C23.9144 16.6647 24.084 17.0307 24.1029 17.4187V22.0482ZM28.2279 20.238C28.2279 20.6381 28.0667 21.0218 27.7798 21.3047C27.493 21.5876 27.1039 21.7465 26.6982 21.7465C26.2925 21.7465 25.9034 21.5876 25.6165 21.3047C25.3296 21.0218 25.1684 20.6381 25.1684 20.238V19.2289C25.1684 18.8288 25.3296 18.4451 25.6165 18.1622C25.9034 17.8793 26.2925 17.7204 26.6982 17.7204C27.1039 17.7204 27.493 17.8793 27.7798 18.1622C28.0667 18.4451 28.2279 18.8288 28.2279 19.2289V20.238Z" fill="#2F80ED"/>
</g>
<defs>
<clipPath id="clip0_1238_845">
<rect width="38" height="38" fill="white"/>
</clipPath>
</defs>
</svg>
