<svg width="140" height="140" viewBox="0 0 140 140" fill="none" xmlns="http://www.w3.org/2000/svg">
<rect x="0.5" y="0.5" width="139" height="139" rx="1.5" fill="#F2F2F2"/>
<path d="M17.5 29.1667V110.833C17.5 117.25 22.6917 122.5 29.1667 122.5H110.833C117.25 122.5 122.5 117.25 122.5 110.833V29.1667C122.5 22.75 117.25 17.5 110.833 17.5H29.1667C22.6917 17.5 17.5 22.75 17.5 29.1667ZM87.5 52.5C87.5 62.1833 79.6833 70 70 70C60.3167 70 52.5 62.1833 52.5 52.5C52.5 42.8167 60.3167 35 70 35C79.6833 35 87.5 42.8167 87.5 52.5ZM35 99.1667C35 87.5 58.3333 81.0833 70 81.0833C81.6667 81.0833 105 87.5 105 99.1667V105H35V99.1667Z" fill="#828282"/>
<rect x="0.5" y="0.5" width="139" height="139" rx="1.5" stroke="#E0E0E0"/>
<rect x="0.5" y="108.5" width="139" height="31" rx="1.5" fill="white" stroke="#E0E0E0"/>
<path d="M47.1875 129H45.7793L40.7344 121.187C40.6068 120.991 40.502 120.785 40.4199 120.571H40.3789C40.4154 120.781 40.4336 121.23 40.4336 121.918V129H39.2852V119.197H40.7754L45.6836 126.888C45.8887 127.207 46.0208 127.425 46.0801 127.544H46.1074C46.0618 127.261 46.0391 126.781 46.0391 126.102V119.197H47.1875V129ZM52.5332 129.164C51.4987 129.164 50.6715 128.838 50.0518 128.187C49.4365 127.53 49.1289 126.662 49.1289 125.582C49.1289 124.406 49.4502 123.488 50.0928 122.827C50.7354 122.166 51.6035 121.836 52.6973 121.836C53.7409 121.836 54.5544 122.157 55.1377 122.8C55.7256 123.442 56.0195 124.333 56.0195 125.473C56.0195 126.589 55.7028 127.485 55.0693 128.159C54.4404 128.829 53.5951 129.164 52.5332 129.164ZM52.6152 122.779C51.8952 122.779 51.3255 123.025 50.9062 123.518C50.487 124.005 50.2773 124.68 50.2773 125.541C50.2773 126.37 50.4893 127.024 50.9131 127.503C51.3369 127.981 51.9043 128.221 52.6152 128.221C53.3398 128.221 53.8958 127.986 54.2832 127.517C54.6751 127.047 54.8711 126.38 54.8711 125.514C54.8711 124.639 54.6751 123.964 54.2832 123.49C53.8958 123.016 53.3398 122.779 52.6152 122.779ZM63.3135 122L60.5244 129H59.4238L56.7715 122H58.002L59.7793 127.086C59.9115 127.46 59.9935 127.785 60.0254 128.063H60.0527C60.0983 127.713 60.1712 127.396 60.2715 127.113L62.1309 122H63.3135ZM69.5342 129H68.4131V127.906H68.3857C67.8981 128.745 67.1803 129.164 66.2324 129.164C65.5352 129.164 64.9883 128.979 64.5918 128.61C64.1999 128.241 64.0039 127.751 64.0039 127.141C64.0039 125.833 64.7741 125.072 66.3145 124.857L68.4131 124.563C68.4131 123.374 67.9323 122.779 66.9707 122.779C66.1276 122.779 65.3665 123.066 64.6875 123.641V122.492C65.3757 122.055 66.1686 121.836 67.0664 121.836C68.7116 121.836 69.5342 122.706 69.5342 124.447V129ZM68.4131 125.459L66.7246 125.691C66.2051 125.764 65.8132 125.894 65.5488 126.081C65.2845 126.263 65.1523 126.589 65.1523 127.059C65.1523 127.4 65.2731 127.681 65.5146 127.899C65.7607 128.114 66.0866 128.221 66.4922 128.221C67.0482 128.221 67.5062 128.027 67.8662 127.64C68.2308 127.248 68.4131 126.753 68.4131 126.156V125.459ZM76.0625 120.223C75.862 120.223 75.6911 120.154 75.5498 120.018C75.4085 119.881 75.3379 119.708 75.3379 119.498C75.3379 119.288 75.4085 119.115 75.5498 118.979C75.6911 118.837 75.862 118.767 76.0625 118.767C76.2676 118.767 76.4408 118.837 76.582 118.979C76.7279 119.115 76.8008 119.288 76.8008 119.498C76.8008 119.699 76.7279 119.869 76.582 120.011C76.4408 120.152 76.2676 120.223 76.0625 120.223ZM76.6094 129H75.4883V122H76.6094V129ZM88.8184 129H87.6973V124.98C87.6973 124.206 87.5765 123.645 87.335 123.299C87.098 122.952 86.6969 122.779 86.1318 122.779C85.6533 122.779 85.2454 122.998 84.9082 123.436C84.5755 123.873 84.4092 124.397 84.4092 125.008V129H83.2881V124.844C83.2881 123.467 82.7572 122.779 81.6953 122.779C81.2031 122.779 80.7975 122.987 80.4785 123.401C80.1595 123.812 80 124.347 80 125.008V129H78.8789V122H80V123.107H80.0273C80.5241 122.26 81.2487 121.836 82.2012 121.836C82.6797 121.836 83.0967 121.97 83.4521 122.239C83.8076 122.504 84.0514 122.852 84.1836 123.285C84.7031 122.319 85.4779 121.836 86.5078 121.836C88.0482 121.836 88.8184 122.786 88.8184 124.687V129ZM95.9482 129H94.8271V127.906H94.7998C94.3122 128.745 93.5944 129.164 92.6465 129.164C91.9492 129.164 91.4023 128.979 91.0059 128.61C90.6139 128.241 90.418 127.751 90.418 127.141C90.418 125.833 91.1882 125.072 92.7285 124.857L94.8271 124.563C94.8271 123.374 94.3464 122.779 93.3848 122.779C92.5417 122.779 91.7806 123.066 91.1016 123.641V122.492C91.7897 122.055 92.5827 121.836 93.4805 121.836C95.1257 121.836 95.9482 122.706 95.9482 124.447V129ZM94.8271 125.459L93.1387 125.691C92.6191 125.764 92.2272 125.894 91.9629 126.081C91.6986 126.263 91.5664 126.589 91.5664 127.059C91.5664 127.4 91.6872 127.681 91.9287 127.899C92.1748 128.114 92.5007 128.221 92.9062 128.221C93.4622 128.221 93.9202 128.027 94.2803 127.64C94.6449 127.248 94.8271 126.753 94.8271 126.156V125.459ZM104.035 128.439C104.035 131.01 102.805 132.295 100.344 132.295C99.4779 132.295 98.7214 132.131 98.0742 131.803V130.682C98.8626 131.119 99.6146 131.338 100.33 131.338C102.053 131.338 102.914 130.422 102.914 128.59V127.824H102.887C102.354 128.717 101.551 129.164 100.48 129.164C99.61 129.164 98.9082 128.854 98.375 128.234C97.8464 127.61 97.582 126.774 97.582 125.726C97.582 124.536 97.8669 123.59 98.4365 122.889C99.0107 122.187 99.7946 121.836 100.788 121.836C101.731 121.836 102.431 122.214 102.887 122.971H102.914V122H104.035V128.439ZM102.914 125.835V124.803C102.914 124.247 102.725 123.771 102.347 123.374C101.973 122.978 101.506 122.779 100.945 122.779C100.253 122.779 99.7103 123.032 99.3184 123.538C98.9264 124.039 98.7305 124.743 98.7305 125.65C98.7305 126.43 98.9173 127.054 99.291 127.523C99.6693 127.988 100.168 128.221 100.788 128.221C101.417 128.221 101.927 127.997 102.319 127.551C102.716 127.104 102.914 126.532 102.914 125.835ZM111.931 125.78H106.988C107.007 126.56 107.216 127.161 107.617 127.585C108.018 128.009 108.57 128.221 109.271 128.221C110.06 128.221 110.785 127.961 111.445 127.441V128.494C110.83 128.941 110.017 129.164 109.005 129.164C108.016 129.164 107.239 128.847 106.674 128.214C106.109 127.576 105.826 126.68 105.826 125.527C105.826 124.438 106.134 123.552 106.749 122.868C107.369 122.18 108.137 121.836 109.053 121.836C109.969 121.836 110.677 122.132 111.179 122.725C111.68 123.317 111.931 124.14 111.931 125.192V125.78ZM110.782 124.83C110.778 124.183 110.62 123.679 110.311 123.319C110.005 122.959 109.579 122.779 109.032 122.779C108.504 122.779 108.055 122.968 107.686 123.347C107.316 123.725 107.089 124.219 107.002 124.83H110.782ZM123.572 129H122.451V124.98C122.451 124.206 122.33 123.645 122.089 123.299C121.852 122.952 121.451 122.779 120.886 122.779C120.407 122.779 119.999 122.998 119.662 123.436C119.329 123.873 119.163 124.397 119.163 125.008V129H118.042V124.844C118.042 123.467 117.511 122.779 116.449 122.779C115.957 122.779 115.551 122.987 115.232 123.401C114.913 123.812 114.754 124.347 114.754 125.008V129H113.633V122H114.754V123.107H114.781C115.278 122.26 116.003 121.836 116.955 121.836C117.434 121.836 117.851 121.97 118.206 122.239C118.562 122.504 118.805 122.852 118.938 123.285C119.457 122.319 120.232 121.836 121.262 121.836C122.802 121.836 123.572 122.786 123.572 124.687V129Z" fill="#828282"/>
<path d="M21.9999 117.333C18.3179 117.333 15.3333 120.318 15.3333 124C15.3333 127.682 18.3179 130.667 21.9999 130.667C25.6819 130.667 28.6666 127.682 28.6666 124C28.6666 120.318 25.6819 117.333 21.9999 117.333ZM25.3333 124.667H22.6666V127.333H21.3333V124.667H18.6666V123.333H21.3333V120.667H22.6666V123.333H25.3333V124.667Z" fill="#828282"/>
</svg>
