<svg width="120" height="72" viewBox="0 0 222 72" fill="#fff" xmlns="http://www.w3.org/2000/svg">
<g clip-path="url(#clip0)">
<path d="M86.0268 54.3909V57.2031H84.1612V49.0425H87.0796C89.1651 49.0425 90.2112 49.9032 90.2112 51.6707C90.2211 52.0448 90.1454 52.4163 89.9897 52.7575C89.8339 53.0988 89.6022 53.4011 89.3117 53.6419C88.6329 54.1755 87.78 54.4465 86.913 54.4041L86.0268 54.3909ZM86.0268 50.4486V52.998H86.7598C87.7526 52.998 88.2456 52.5643 88.2456 51.6838C88.2456 50.8034 87.7526 50.4223 86.7598 50.4223L86.0268 50.4486Z" fill="#fff"/>
<path d="M97.2808 57.3476C96.7435 57.3671 96.208 57.2755 95.7088 57.0785C95.2096 56.8816 94.7577 56.5838 94.3823 56.2043C94.0075 55.8039 93.7173 55.3339 93.5286 54.8218C93.3398 54.3097 93.2563 53.7656 93.2829 53.2213C93.2319 52.0729 93.6385 50.9504 94.4156 50.0937C94.8031 49.6935 95.2729 49.3798 95.7935 49.1735C96.3141 48.9672 96.8735 48.8733 97.434 48.8979C97.9664 48.8777 98.4971 48.9691 98.991 49.1662C99.4849 49.3633 99.9308 49.6615 100.299 50.0412C101.051 50.8661 101.443 51.9493 101.392 53.057C101.444 54.1976 101.037 55.3123 100.259 56.1583C99.8769 56.5539 99.4136 56.8646 98.9 57.0697C98.3864 57.2748 97.8344 57.3695 97.2808 57.3476ZM97.3607 50.488C97.0611 50.4765 96.7631 50.5362 96.4918 50.662C96.2205 50.7878 95.9838 50.976 95.8016 51.2107C95.3924 51.7665 95.1879 52.4434 95.2219 53.1293C95.1819 53.816 95.3869 54.4948 95.8016 55.0479C95.9791 55.2754 96.2086 55.4583 96.4715 55.5817C96.7343 55.705 97.0231 55.7653 97.3141 55.7575C97.6036 55.772 97.8926 55.7202 98.1585 55.6063C98.4243 55.4923 98.6599 55.3192 98.8466 55.1005C99.251 54.548 99.4509 53.8754 99.4129 53.195C99.4532 52.4959 99.2589 51.8031 98.8599 51.2239C98.6917 50.9911 98.4685 50.8024 98.2095 50.6742C97.9506 50.5459 97.6638 50.482 97.374 50.488H97.3607Z" fill="#fff"/>
<path d="M112.006 57.2031H109.861L108.608 55.1005C108.515 54.9428 108.421 54.7983 108.335 54.6734C108.252 54.5595 108.161 54.4519 108.062 54.3515C107.981 54.2682 107.886 54.1993 107.782 54.1478C107.682 54.1008 107.573 54.0761 107.462 54.0755H106.956V57.2031H105.097V49.0425H108.048C110.047 49.0425 111.06 49.7784 111.06 51.2568C111.065 51.5248 111.022 51.7917 110.933 52.0452C110.752 52.5397 110.401 52.9559 109.941 53.2214C109.702 53.366 109.444 53.4766 109.174 53.5499C109.305 53.5872 109.428 53.6497 109.534 53.7339C109.655 53.8217 109.766 53.9207 109.867 54.0295C109.979 54.1461 110.083 54.269 110.18 54.3975C110.274 54.5289 110.367 54.6603 110.447 54.7851L112.006 57.2031ZM106.922 50.4157V52.6891H107.735C107.91 52.6971 108.085 52.671 108.249 52.6124C108.414 52.5538 108.565 52.4638 108.695 52.3475C108.815 52.2381 108.91 52.1048 108.975 51.9565C109.039 51.8081 109.071 51.648 109.068 51.4867C109.068 50.7705 108.635 50.4157 107.768 50.4157H106.922Z" fill="#fff"/>
<path d="M120.835 50.534H118.476V57.2031H116.604V50.534H114.258V49.0425H120.835V50.534Z" fill="#fff"/>
<path d="M130.703 57.2031H128.704L128.117 55.3896H125.172L124.586 57.2031H122.587L125.599 49.0425H127.811L130.703 57.2031ZM127.658 53.977L126.765 51.2502C126.697 51.0092 126.651 50.763 126.625 50.5143H126.598C126.576 50.7575 126.527 50.9977 126.452 51.2305L125.552 53.9967L127.658 53.977Z" fill="#fff"/>
<path d="M138.918 57.2031H133.988V49.0425H135.847V55.7116H138.918V57.2031Z" fill="#fff"/>
<path d="M149.919 54.3909V57.2031H148.053V49.0425H150.978C153.064 49.0425 154.103 49.9032 154.103 51.6707C154.113 52.0448 154.038 52.4163 153.882 52.7575C153.726 53.0988 153.494 53.4011 153.204 53.6419C152.526 54.1771 151.672 54.4483 150.805 54.4041L149.919 54.3909ZM149.919 50.4486V52.998H150.652C151.645 52.998 152.144 52.5643 152.144 51.6838C152.144 50.8034 151.645 50.4223 150.652 50.4223L149.919 50.4486Z" fill="#fff"/>
<path d="M164.291 57.2031H162.292L161.706 55.3896H158.761L158.175 57.2031H156.176L159.187 49.0425H161.399L164.291 57.2031ZM161.246 53.977L160.353 51.2502C160.28 51.0107 160.233 50.7639 160.213 50.5143H160.167C160.147 50.7573 160.1 50.9975 160.027 51.2305L159.121 53.9967L161.246 53.977Z" fill="#fff"/>
<path d="M174.519 57.2031H172.373L171.088 55.1005C170.994 54.9428 170.901 54.7983 170.814 54.6734C170.732 54.5595 170.64 54.4519 170.541 54.3515C170.459 54.2696 170.365 54.2009 170.261 54.1478C170.161 54.1008 170.052 54.0761 169.941 54.0755H169.435V57.2031H167.569V49.0425H170.528C172.527 49.0425 173.54 49.7784 173.54 51.2568C173.545 51.5255 173.5 51.7929 173.406 52.0452C173.321 52.2835 173.194 52.5057 173.033 52.7023C172.868 52.9004 172.67 53.0693 172.447 53.2016C172.208 53.3451 171.95 53.4557 171.681 53.5302C171.812 53.5675 171.934 53.63 172.04 53.7141C172.159 53.8036 172.271 53.9025 172.373 54.0098C172.48 54.1281 172.587 54.2464 172.687 54.3778C172.787 54.5092 172.873 54.6406 172.953 54.7654L174.519 57.2031ZM169.435 50.4157V52.6891H170.248C170.423 52.6971 170.598 52.671 170.762 52.6124C170.927 52.5538 171.078 52.4638 171.207 52.3475C171.328 52.2381 171.423 52.1048 171.487 51.9565C171.552 51.8081 171.584 51.648 171.581 51.4867C171.581 50.7705 171.147 50.4157 170.281 50.4157H169.435Z" fill="#fff"/>
<path d="M185.406 57.2031H183.374L182.788 55.3896H179.843L179.236 57.2031H177.238L180.249 49.0425H182.461L185.406 57.2031ZM182.361 53.977L181.469 51.2502C181.395 51.0107 181.348 50.7639 181.329 50.5143H181.282C181.262 50.7573 181.215 50.9975 181.142 51.2305L180.236 53.9967L182.361 53.977Z" fill="#fff"/>
<path d="M91.4372 71.8554H89.4383L88.852 70.0419H85.9069L85.3206 71.8554H83.3216L86.3333 63.6882H88.5455L91.4372 71.8554ZM88.3922 68.6293L87.4994 65.8828C87.4314 65.6422 87.3868 65.3958 87.3661 65.1469H87.3195C87.3002 65.3906 87.251 65.6311 87.1729 65.8631L86.2734 68.6293H88.3922Z" fill="#fff"/>
<path d="M102.165 71.8554H100.286L96.8743 66.7238C96.7229 66.5135 96.5849 66.294 96.4612 66.0668C96.4991 66.5038 96.5147 66.9423 96.5078 67.3809V71.8685H94.7488V63.6882H96.7477L100.033 68.6621C100.186 68.8855 100.326 69.1089 100.452 69.3192C100.411 68.9483 100.395 68.5751 100.406 68.2022V63.6882H102.165V71.8554Z" fill="#fff"/>
<path d="M113.605 71.8554H111.573L110.987 70.0419H108.042L107.462 71.8554H105.463L108.481 63.6882H110.687L113.605 71.8554ZM111.36 61.106L109.554 62.9457H108.221L109.741 61.106H111.36ZM110.56 68.6424L109.667 65.8959C109.599 65.6553 109.555 65.4089 109.534 65.16H109.487C109.468 65.4037 109.419 65.6442 109.341 65.8762L108.441 68.6424H110.56Z" fill="#fff"/>
<path d="M121.821 71.8554H116.89V63.6882H118.756V70.3639H121.821V71.8554Z" fill="#fff"/>
<path d="M127.011 71.8554H125.146V63.6882H127.011V71.8554Z" fill="#fff"/>
<path d="M130.876 71.5399V69.7199C131.513 70.2523 132.32 70.5475 133.155 70.5544C133.363 70.5553 133.571 70.5332 133.774 70.4887C133.928 70.4566 134.074 70.3988 134.207 70.3178C134.315 70.2511 134.406 70.1613 134.474 70.055C134.532 69.9549 134.561 69.8416 134.561 69.7265C134.563 69.5729 134.513 69.4229 134.421 69.2994C134.316 69.1624 134.187 69.0446 134.041 68.9512C133.861 68.8333 133.671 68.73 133.475 68.6423L132.762 68.3401C132.205 68.1395 131.708 67.8052 131.316 67.3676C130.998 66.9746 130.83 66.4838 130.843 65.9813C130.832 65.5996 130.922 65.2216 131.102 64.884C131.274 64.5804 131.516 64.3214 131.809 64.1284C132.124 63.925 132.474 63.7782 132.842 63.6947C133.252 63.6009 133.673 63.5546 134.094 63.5567C134.477 63.5549 134.86 63.579 135.24 63.629C135.554 63.6768 135.862 63.756 136.16 63.8656V65.5673C136.016 65.4726 135.864 65.3891 135.707 65.3176C135.543 65.2459 135.373 65.1866 135.2 65.1402C135.03 65.0926 134.856 65.0575 134.681 65.0351C134.519 65.0258 134.356 65.0258 134.194 65.0351C134.001 65.0332 133.809 65.053 133.621 65.0942C133.467 65.1255 133.318 65.181 133.181 65.2585C133.07 65.3251 132.974 65.4148 132.901 65.5213C132.835 65.6206 132.8 65.7374 132.802 65.8564C132.801 65.9875 132.841 66.1156 132.915 66.2244C132.998 66.3462 133.104 66.4511 133.228 66.5332C133.381 66.6426 133.543 66.7372 133.714 66.8157C133.908 66.9143 134.127 67.0063 134.381 67.1048C134.688 67.2296 134.986 67.3744 135.274 67.5385C135.519 67.6825 135.743 67.8594 135.94 68.0641C136.126 68.2531 136.274 68.4763 136.373 68.7212C136.602 69.3803 136.562 70.1017 136.26 70.7318C136.09 71.0383 135.845 71.298 135.547 71.4874C135.226 71.6855 134.871 71.8256 134.501 71.9013C134.084 71.9841 133.66 72.026 133.235 72.0262C132.801 72.0281 132.368 71.9885 131.942 71.9079C131.57 71.8386 131.211 71.7146 130.876 71.5399Z" fill="#fff"/>
<path d="M145.175 71.8554H140.211V63.6882H144.982V65.1863H142.077V67.0195H144.782V68.511H142.077V70.377H145.175V71.8554Z" fill="#fff"/>
<path d="M154.496 71.8554V63.6882H157.428C160.364 63.6882 161.835 65.0155 161.839 67.67C161.866 68.2331 161.773 68.7956 161.565 69.3208C161.357 69.846 161.04 70.3223 160.633 70.7187C160.201 71.1067 159.695 71.4068 159.146 71.6018C158.596 71.7969 158.012 71.8831 157.428 71.8554H154.496ZM156.362 65.1863V70.3639H157.282C157.633 70.3838 157.984 70.3303 158.312 70.2068C158.641 70.0834 158.939 69.8929 159.187 69.6477C159.665 69.1031 159.904 68.3946 159.854 67.6765C159.874 67.3414 159.826 67.0056 159.712 66.6894C159.597 66.3731 159.419 66.0831 159.187 65.8368C158.928 65.6068 158.625 65.4301 158.295 65.3173C157.966 65.2045 157.616 65.1577 157.268 65.1797L156.362 65.1863Z" fill="#fff"/>
<path d="M170.475 71.8554H165.511V63.6882H170.288V65.1863H167.376V67.0195H170.081V68.511H167.376V70.377H170.475V71.8554Z" fill="#fff"/>
<path d="M184.567 65.1863H181.648V67.1903H184.314V68.6818H181.648V71.8554H179.783V63.6882H184.567V65.1863Z" fill="#fff"/>
<path d="M195.075 71.8554H193.076L192.483 70.0419H189.538L188.958 71.8554H186.959L189.897 63.6882H192.11L195.075 71.8554ZM192.023 68.6293L191.137 65.8828C191.063 65.6433 191.016 65.3965 190.997 65.1469H190.95C190.931 65.3906 190.882 65.6311 190.804 65.8631L189.897 68.6293H192.023Z" fill="#fff"/>
<path d="M203.283 71.8554H198.353V63.6882H200.218V70.3639H203.283V71.8554Z" fill="#fff"/>
<path d="M214.344 71.8554H212.312L211.719 70.0419H208.774L208.194 71.8554H206.195L209.22 63.6882H211.432L214.344 71.8554ZM211.292 68.6293L210.406 65.8828C210.332 65.6433 210.286 65.3965 210.266 65.1469H210.22C210.2 65.3899 210.153 65.6301 210.08 65.8631L209.174 68.6293H211.292Z" fill="#fff"/>
<path d="M91.1174 38.7135C89.1449 38.7417 87.2061 38.2078 85.5338 37.176C83.8839 36.1524 82.5371 34.7178 81.6292 33.0169C80.6575 31.1811 80.1673 29.1345 80.2033 27.064C80.1715 24.9714 80.7099 22.9087 81.7625 21.0913C82.7605 19.3577 84.2066 17.9158 85.9535 16.9125C87.7753 15.8761 89.8474 15.3448 91.9503 15.375C94.0098 15.3426 96.0404 15.856 97.8301 16.8615C99.6198 17.867 101.103 19.3278 102.125 21.0913C103.172 22.9104 103.708 24.9723 103.677 27.064H102.018C102.06 29.1328 101.577 31.1792 100.612 33.0169C99.7068 34.7173 98.3622 36.152 96.7144 37.176C95.0378 38.2092 93.0943 38.7431 91.1174 38.7135ZM91.9503 34.9289C93.3178 34.9526 94.6644 34.595 95.8349 33.8973C96.9635 33.2104 97.8841 32.2368 98.5001 31.0786C99.1644 29.8431 99.5013 28.4622 99.4796 27.064C99.5189 25.6519 99.1957 24.2528 98.5401 22.9968C97.924 21.8386 97.0035 20.865 95.8748 20.178C94.6996 19.5027 93.3638 19.1469 92.0036 19.1469C90.6434 19.1469 89.3076 19.5027 88.1324 20.178C86.976 20.856 86.0273 21.83 85.3872 22.9968C84.702 24.2396 84.3553 25.6364 84.3811 27.0508C84.3586 28.4523 84.7053 29.8356 85.3872 31.0654C86.0219 32.2297 86.9634 33.2035 88.1124 33.8842C89.2686 34.5769 90.5975 34.9386 91.9503 34.9289ZM101.505 38.5887C101.217 38.5979 100.93 38.5485 100.661 38.4437C100.393 38.3389 100.15 38.1809 99.9461 37.9794C99.7424 37.7779 99.5829 37.5373 99.4774 37.2726C99.3719 37.0078 99.3228 36.7244 99.333 36.4401V30.0076L100.139 25.5527L103.677 27.064V36.4401C103.686 36.7246 103.635 37.0077 103.529 37.2722C103.422 37.5366 103.262 37.7767 103.058 37.9776C102.858 38.1771 102.619 38.3342 102.355 38.4393C102.092 38.5444 101.809 38.5952 101.525 38.5887H101.505Z" fill="#fff"/>
<path d="M109.941 38.5889C109.652 38.5981 109.365 38.5487 109.097 38.4439C108.829 38.3391 108.585 38.1811 108.382 37.9796C108.178 37.7781 108.018 37.5375 107.913 37.2727C107.807 37.008 107.758 36.7246 107.768 36.4403V17.688C107.756 17.4008 107.805 17.1143 107.91 16.8463C108.016 16.5784 108.176 16.3348 108.381 16.1308C108.815 15.7538 109.373 15.5458 109.951 15.5458C110.528 15.5458 111.086 15.7538 111.52 16.1308C111.721 16.3369 111.877 16.5813 111.979 16.8491C112.081 17.1169 112.126 17.4023 112.113 17.688V36.4403C112.123 36.7227 112.076 37.0042 111.974 37.2682C111.872 37.5323 111.718 37.7736 111.52 37.9778C111.314 38.1824 111.067 38.3425 110.796 38.4477C110.524 38.5529 110.232 38.601 109.941 38.5889ZM127.464 38.5889C127.177 38.5961 126.89 38.5455 126.623 38.44C126.356 38.3345 126.113 38.1764 125.91 37.9753C125.706 37.7743 125.547 37.5344 125.441 37.2705C125.335 37.0066 125.284 36.7241 125.292 36.4403V26.0983C125.349 24.7404 125.041 23.3918 124.399 22.1888C123.843 21.2178 123.002 20.4348 121.987 19.9417C120.902 19.4313 119.711 19.177 118.509 19.1992C117.388 19.1854 116.279 19.4307 115.271 19.9154C114.354 20.3549 113.562 21.0119 112.966 21.8274C112.396 22.6367 112.097 23.6019 112.113 24.5871H109.448C109.42 22.9209 109.87 21.2809 110.747 19.8563C111.622 18.4717 112.852 17.3387 114.312 16.571C115.87 15.7491 117.615 15.3309 119.382 15.3555C121.216 15.3259 123.028 15.7506 124.653 16.5907C126.207 17.4264 127.481 18.6915 128.317 20.2308C129.268 22.0568 129.727 24.0931 129.65 26.1443V36.4403C129.658 36.7247 129.608 37.0077 129.501 37.2721C129.394 37.5365 129.234 37.7766 129.03 37.9778C128.826 38.1789 128.583 38.3369 128.315 38.442C128.046 38.5471 127.759 38.5971 127.471 38.5889H127.464Z" fill="#fff"/>
<path d="M143.742 38.7135C141.768 38.7418 139.827 38.208 138.152 37.176C136.503 36.154 135.158 34.7188 134.254 33.0169C133.28 31.1815 132.788 29.1351 132.822 27.064C132.79 24.9714 133.328 22.9087 134.381 21.0913C135.386 19.3565 136.839 17.9148 138.592 16.9125C140.413 15.8761 142.486 15.3448 144.589 15.375C146.648 15.3426 148.679 15.856 150.468 16.8615C152.258 17.867 153.741 19.3278 154.763 21.0913C155.814 22.9092 156.35 24.9719 156.316 27.064H154.656C154.698 29.1328 154.215 31.1792 153.251 33.0169C152.347 34.7188 151.002 36.154 149.353 37.176C147.672 38.212 145.724 38.746 143.742 38.7135ZM144.589 34.9289C145.956 34.9526 147.303 34.595 148.473 33.8973C149.604 33.2129 150.525 32.2387 151.138 31.0786C151.803 29.8431 152.14 28.4622 152.118 27.064C152.151 25.6501 151.821 24.251 151.158 22.9968C150.545 21.8367 149.624 20.8624 148.493 20.178C147.318 19.5027 145.982 19.1469 144.622 19.1469C143.262 19.1469 141.926 19.5027 140.751 20.178C139.596 20.8578 138.647 21.8314 138.005 22.9968C137.32 24.2396 136.974 25.6364 136.999 27.0508C136.977 28.4523 137.323 29.8356 138.005 31.0654C138.642 32.2283 139.583 33.2017 140.731 33.8842C141.893 34.5804 143.229 34.9423 144.589 34.9289ZM154.143 38.5887C153.855 38.5979 153.568 38.5485 153.3 38.4437C153.031 38.3389 152.788 38.1809 152.584 37.9794C152.381 37.7779 152.221 37.5373 152.116 37.2726C152.01 37.0078 151.961 36.7244 151.971 36.4401V30.0076L152.777 25.5527L156.316 27.064V36.4401C156.326 36.7244 156.277 37.0078 156.171 37.2726C156.066 37.5373 155.906 37.7779 155.702 37.9794C155.499 38.1809 155.255 38.3389 154.987 38.4437C154.719 38.5485 154.432 38.5979 154.143 38.5887Z" fill="#fff"/>
<path d="M166.184 38.5429C164.993 38.5613 163.828 38.2096 162.852 37.5376C161.858 36.8372 161.073 35.8864 160.58 34.7845C160.02 33.5173 159.745 32.1454 159.774 30.7634V7.80588C159.761 7.52654 159.808 7.24774 159.911 6.98716C160.014 6.72659 160.17 6.48994 160.371 6.29223C160.571 6.09452 160.811 5.94007 161.076 5.83869C161.34 5.73731 161.623 5.6912 161.906 5.70331C162.189 5.6922 162.471 5.73899 162.735 5.84073C162.999 5.94246 163.238 6.09694 163.439 6.29444C163.639 6.49194 163.795 6.72819 163.899 6.98831C164.002 7.24843 164.049 7.52679 164.038 7.80588V30.7634C164.001 31.6564 164.206 32.5431 164.631 33.3324C164.769 33.6237 164.985 33.8718 165.257 34.0492C165.528 34.2267 165.845 34.3265 166.17 34.3377H167.243C167.504 34.33 167.763 34.379 168.003 34.4812C168.242 34.5834 168.456 34.7363 168.629 34.9291C168.992 35.349 169.183 35.8885 169.162 36.4403C169.164 36.7398 169.091 37.0352 168.949 37.3C168.807 37.5649 168.601 37.791 168.349 37.9581C167.737 38.371 167.005 38.5763 166.263 38.5429H166.184Z" fill="#fff"/>
<path d="M173.386 11.8269C173.013 11.8356 172.643 11.7669 172.298 11.6255C171.954 11.484 171.644 11.2728 171.387 11.0056C171.119 10.75 170.905 10.4438 170.76 10.1051C170.614 9.76649 170.539 9.40234 170.539 9.03442C170.539 8.66651 170.614 8.30236 170.76 7.9637C170.905 7.62504 171.119 7.3188 171.387 7.06326C171.783 6.67893 172.284 6.41825 172.829 6.31391C173.374 6.20956 173.938 6.26621 174.45 6.47674C174.963 6.68726 175.401 7.0423 175.709 7.49731C176.018 7.95232 176.183 8.48705 176.185 9.03442C176.181 9.76834 175.886 10.4717 175.363 10.9938C174.84 11.5158 174.13 11.8149 173.386 11.8269ZM173.386 38.569C173.098 38.5747 172.812 38.5221 172.546 38.4144C172.28 38.3068 172.038 38.1464 171.837 37.9432C171.636 37.7399 171.479 37.4982 171.377 37.2329C171.274 36.9676 171.228 36.6844 171.241 36.4007V17.6878C171.228 17.4 171.277 17.1129 171.384 16.8447C171.491 16.5766 171.653 16.3334 171.86 16.1306C172.164 15.8166 172.557 15.6011 172.988 15.513C173.419 15.4249 173.867 15.4683 174.272 15.6374C174.677 15.8065 175.02 16.0933 175.256 16.4596C175.492 16.8259 175.609 17.2543 175.592 17.6878V36.4007C175.601 36.6835 175.552 36.9652 175.449 37.2292C175.346 37.4932 175.191 37.7343 174.992 37.9382C174.782 38.144 174.531 38.3041 174.254 38.4083C173.978 38.5124 173.682 38.5582 173.386 38.5427V38.569Z" fill="#fff"/>
<path d="M188.971 38.7136C187.093 38.732 185.225 38.4251 183.454 37.8069C181.985 37.3389 180.639 36.5583 179.51 35.5203C179.306 35.3226 179.151 35.0807 179.059 34.8138C178.966 34.5468 178.938 34.2623 178.977 33.9828C179.007 33.7047 179.097 33.4359 179.239 33.1938C179.381 32.9517 179.573 32.7415 179.803 32.5767C180.029 32.3727 180.296 32.2167 180.586 32.1183C180.875 32.02 181.183 31.9815 181.489 32.0051C182.038 32.0735 182.544 32.3348 182.914 32.741C183.575 33.3904 184.364 33.8982 185.233 34.2325C186.358 34.7106 187.573 34.948 188.798 34.929C190.104 35.0074 191.406 34.7301 192.563 34.1274C192.945 33.9267 193.269 33.6319 193.503 33.2716C193.736 32.9113 193.871 32.4977 193.895 32.0708C193.897 31.6341 193.786 31.2041 193.572 30.8214C193.359 30.4386 193.051 30.1157 192.676 29.8828C191.836 29.2652 190.308 28.7614 188.092 28.3716C185.222 27.8065 183.141 26.9655 181.848 25.8485C181.231 25.3484 180.736 24.7179 180.399 24.0037C180.063 23.2895 179.893 22.5098 179.903 21.7222C179.856 20.4222 180.314 19.1535 181.182 18.1741C182.077 17.2079 183.208 16.484 184.467 16.0715C185.809 15.6056 187.222 15.3701 188.645 15.3751C190.351 15.3434 192.047 15.6449 193.635 16.2621C194.98 16.771 196.17 17.6101 197.093 18.6998C197.46 19.0776 197.658 19.5834 197.647 20.1058C197.628 20.3534 197.553 20.5936 197.427 20.8087C197.302 21.0237 197.128 21.2079 196.92 21.3477C196.685 21.5028 196.42 21.6089 196.142 21.6598C195.863 21.7106 195.577 21.705 195.301 21.6434C194.712 21.5472 194.163 21.2848 193.722 20.8877C193.075 20.2519 192.285 19.7748 191.417 19.4948C190.49 19.2308 189.529 19.1045 188.565 19.1203C187.468 19.096 186.381 19.3208 185.386 19.7773C185.005 19.9179 184.676 20.17 184.444 20.5C184.212 20.83 184.087 21.222 184.087 21.6236C184.081 22.1081 184.22 22.5834 184.487 22.9903C184.903 23.5021 185.461 23.8833 186.093 24.0876C187.226 24.5038 188.394 24.8205 189.584 25.0338C191.337 25.3315 193.039 25.8688 194.641 26.6304C195.714 27.1372 196.632 27.9119 197.307 28.8775C197.855 29.7697 198.135 30.7976 198.113 31.8408C198.129 33.0833 197.765 34.3016 197.067 35.3364C196.3 36.4282 195.238 37.2863 194.002 37.8135C192.41 38.4666 190.694 38.7736 188.971 38.7136Z" fill="#fff"/>
<path d="M212.019 38.7136C209.828 38.7522 207.663 38.2389 205.729 37.2221C203.939 36.263 202.45 34.8381 201.424 33.1024C200.372 31.2622 199.843 29.1761 199.892 27.064C199.848 24.9473 200.355 22.8549 201.364 20.9863C202.313 19.271 203.721 17.8459 205.436 16.8666C207.263 15.8477 209.334 15.3325 211.432 15.375C213.438 15.3209 215.419 15.8241 217.149 16.8271C218.73 17.7831 219.996 19.1708 220.794 20.822C221.664 22.6569 222.095 24.6644 222.053 26.6895C222.059 26.9344 222.013 27.1778 221.917 27.4041C221.822 27.6304 221.68 27.8346 221.5 28.0036C221.313 28.1791 221.093 28.316 220.851 28.4063C220.61 28.4966 220.352 28.5384 220.094 28.5293H202.904V25.1717H219.881L218.135 26.3478C218.131 25.0489 217.84 23.7664 217.283 22.5895C216.77 21.4759 215.931 20.5388 214.875 19.8984C213.818 19.2581 212.592 18.9436 211.352 18.9954C209.904 18.9589 208.473 19.3207 207.221 20.0401C206.083 20.7303 205.173 21.7326 204.603 22.9246C203.986 24.2186 203.679 25.6346 203.703 27.064C203.679 28.5065 204.047 29.9291 204.769 31.1838C205.472 32.3826 206.489 33.3723 207.714 34.0485C209.031 34.7636 210.515 35.126 212.019 35.0998C212.944 35.0914 213.861 34.927 214.731 34.6136C215.529 34.352 216.283 33.9756 216.969 33.4966C217.371 33.2004 217.854 33.033 218.355 33.017C218.841 32.9875 219.319 33.1454 219.688 33.4572C219.897 33.6245 220.07 33.8318 220.196 34.0667C220.322 34.3016 220.398 34.5591 220.421 34.8238C220.432 35.0807 220.377 35.3362 220.261 35.5661C220.144 35.7961 219.97 35.9929 219.755 36.138C218.67 36.9546 217.451 37.5793 216.15 37.9843C214.823 38.4489 213.427 38.6953 212.019 38.7136Z" fill="#fff"/>
<path d="M34.9145 1.40084e-08C27.0739 -0.000215786 19.4422 2.49287 13.1525 7.10914C6.86284 11.7254 2.2504 18.2187 0 25.6251C0.441973 25.4121 0.931648 25.3136 1.42292 25.3387C1.91418 25.3639 2.39088 25.5119 2.80811 25.7689C3.22534 26.0259 3.56937 26.3833 3.80782 26.8076C4.04627 27.2319 4.17128 27.7091 4.17108 28.1942V48.9965C4.17175 49.6 3.97873 50.1882 3.61965 50.6768C3.26058 51.1654 2.75389 51.5295 2.17216 51.7167C5.02823 57.4777 9.39558 62.38 14.8211 65.9151C20.2465 69.4502 26.5325 71.4892 33.0266 71.8206C39.5208 72.152 45.9866 70.7636 51.7531 67.7996C57.5196 64.8356 62.3767 60.404 65.8205 54.9645C69.2643 49.525 71.1693 43.2758 71.3378 36.8654C71.5063 30.455 69.9321 24.1169 66.7787 18.5088C63.6254 12.9007 59.0076 8.22685 53.4045 4.97224C47.8015 1.71763 41.4173 0.000839888 34.9145 1.40084e-08V1.40084e-08ZM12.7531 51.1188C12.7174 51.854 12.396 52.5474 11.8558 53.0553C11.3155 53.5631 10.5977 53.8464 9.85134 53.8464C9.10494 53.8464 8.38718 53.5631 7.84691 53.0553C7.30664 52.5474 6.98531 51.854 6.94958 51.1188V20.3687C6.98531 19.6335 7.30664 18.9401 7.84691 18.4322C8.38718 17.9244 9.10494 17.6411 9.85134 17.6411C10.5977 17.6411 11.3155 17.9244 11.8558 18.4322C12.396 18.9401 12.7174 19.6335 12.7531 20.3687V51.1188ZM21.2019 57.8208C21.1661 58.556 20.8448 59.2494 20.3045 59.7572C19.7643 60.2651 19.0465 60.5484 18.3001 60.5484C17.5537 60.5484 16.8359 60.2651 16.2957 59.7572C15.7554 59.2494 15.4341 58.556 15.3983 57.8208V14.0215C15.4341 13.2863 15.7554 12.5929 16.2957 12.0851C16.8359 11.5772 17.5537 11.2939 18.3001 11.2939C19.0465 11.2939 19.7643 11.5772 20.3045 12.0851C20.8448 12.5929 21.1661 13.2863 21.2019 14.0215V57.8208ZM29.7772 53.2937C29.7961 53.681 29.735 54.068 29.5976 54.4314C29.4603 54.7947 29.2496 55.1268 28.9783 55.4074C28.707 55.6881 28.3807 55.9115 28.0193 56.0642C27.6578 56.2169 27.2687 56.2956 26.8755 56.2956C26.4823 56.2956 26.0931 56.2169 25.7317 56.0642C25.3702 55.9115 25.044 55.6881 24.7727 55.4074C24.5014 55.1268 24.2907 54.7947 24.1533 54.4314C24.016 54.068 23.9549 53.681 23.9737 53.2937V22.5567C24.0094 21.8215 24.3308 21.1281 24.871 20.6202C25.4113 20.1124 26.1291 19.8291 26.8755 19.8291C27.6219 19.8291 28.3396 20.1124 28.8799 20.6202C29.4202 21.1281 29.7415 21.8215 29.7772 22.5567V53.2937ZM37.8462 46.1384C37.8105 46.8735 37.4892 47.567 36.9489 48.0748C36.4086 48.5827 35.6908 48.8659 34.9444 48.8659C34.198 48.8659 33.4803 48.5827 32.94 48.0748C32.3997 47.567 32.0784 46.8735 32.0427 46.1384V25.3492C32.0784 24.614 32.3997 23.9205 32.94 23.4127C33.4803 22.9049 34.198 22.6216 34.9444 22.6216C35.6908 22.6216 36.4086 22.9049 36.9489 23.4127C37.4892 23.9205 37.8105 24.614 37.8462 25.3492V46.1384ZM45.6687 41.7755C45.6875 42.1628 45.6264 42.5499 45.489 42.9132C45.3517 43.2765 45.141 43.6086 44.8697 43.8893C44.5984 44.1699 44.2721 44.3934 43.9107 44.546C43.5492 44.6987 43.1601 44.7774 42.7669 44.7774C42.3737 44.7774 41.9846 44.6987 41.6231 44.546C41.2616 44.3934 40.9354 44.1699 40.6641 43.8893C40.3928 43.6086 40.1821 43.2765 40.0447 42.9132C39.9074 42.5499 39.8463 42.1628 39.8651 41.7755V33.0038C39.9009 32.2686 40.2222 31.5752 40.7625 31.0674C41.3027 30.5595 42.0205 30.2762 42.7669 30.2762C43.5133 30.2762 44.231 30.5595 44.7713 31.0674C45.3116 31.5752 45.6329 32.2686 45.6687 33.0038V41.7755ZM53.4844 38.3457C53.4844 39.1037 53.1791 39.8307 52.6355 40.3667C52.0919 40.9027 51.3547 41.2039 50.586 41.2039C49.8173 41.2039 49.0801 40.9027 48.5365 40.3667C47.9929 39.8307 47.6876 39.1037 47.6876 38.3457V36.4337C47.6876 35.6756 47.9929 34.9486 48.5365 34.4126C49.0801 33.8766 49.8173 33.5755 50.586 33.5755C51.3547 33.5755 52.0919 33.8766 52.6355 34.4126C53.1791 34.9486 53.4844 35.6756 53.4844 36.4337V38.3457Z" fill="#fff"/>
</g>
<defs>
<clipPath id="clip0">
<rect width="222" height="72" fill="white"/>
</clipPath>
</defs>
</svg>
