<svg width="16" height="16" viewBox="0 0 16 16" fill="none" xmlns="http://www.w3.org/2000/svg">
<path d="M7.33334 11.9999H8.66668V10.6666H7.33334V11.9999ZM8.00001 1.33325C4.32001 1.33325 1.33334 4.31992 1.33334 7.99992C1.33334 11.6799 4.32001 14.6666 8.00001 14.6666C11.68 14.6666 14.6667 11.6799 14.6667 7.99992C14.6667 4.31992 11.68 1.33325 8.00001 1.33325ZM8.00001 13.3333C5.06001 13.3333 2.66668 10.9399 2.66668 7.99992C2.66668 5.05992 5.06001 2.66659 8.00001 2.66659C10.94 2.66659 13.3333 5.05992 13.3333 7.99992C13.3333 10.9399 10.94 13.3333 8.00001 13.3333ZM8.00001 3.99992C6.52668 3.99992 5.33334 5.19325 5.33334 6.66658H6.66668C6.66668 5.93325 7.26668 5.33325 8.00001 5.33325C8.73334 5.33325 9.33334 5.93325 9.33334 6.66658C9.33334 7.99992 7.33334 7.83325 7.33334 9.99992H8.66668C8.66668 8.49992 10.6667 8.33325 10.6667 6.66658C10.6667 5.19325 9.47334 3.99992 8.00001 3.99992Z" fill="#2F80ED"/>
</svg>
