<svg width="16" height="16" viewBox="0 0 16 16" fill="none" xmlns="http://www.w3.org/2000/svg">
<path d="M6.00001 8.66659C7.47277 8.66659 8.66668 7.47268 8.66668 5.99992C8.66668 4.52716 7.47277 3.33325 6.00001 3.33325C4.52725 3.33325 3.33334 4.52716 3.33334 5.99992C3.33334 7.47268 4.52725 8.66659 6.00001 8.66659Z" fill="#2F80ED"/>
<path d="M5.99999 9.99992C4.21999 9.99992 0.666656 10.8933 0.666656 12.6666V13.9999H11.3333V12.6666C11.3333 10.8933 7.77999 9.99992 5.99999 9.99992ZM11.1733 3.57325L10.0533 4.69992C10.6133 5.48659 10.6133 6.50659 10.0533 7.29325L11.1733 8.41992C12.52 7.07325 12.52 5.03992 11.1733 3.57325ZM13.38 1.33325L12.2933 2.41992C14.14 4.43325 14.14 7.45992 12.2933 9.57992L13.38 10.6666C15.98 8.07325 15.9867 4.03325 13.38 1.33325Z" fill="#2F80ED"/>
</svg>
