<svg width="120" height="40" viewBox="0 0 120 40" fill="none" xmlns="http://www.w3.org/2000/svg">
<g clip-path="url(#clip0_1245_1753)">
<path d="M46.501 30.2174V31.7798H45.4926V27.2461H47.0701C48.1974 27.2461 48.7628 27.7243 48.7628 28.7062C48.7682 28.914 48.7273 29.1204 48.6431 29.31C48.5589 29.4996 48.4336 29.6675 48.2766 29.8013C47.9097 30.0977 47.4487 30.2483 46.98 30.2247L46.501 30.2174ZM46.501 28.0273V29.4436H46.8972C47.4338 29.4436 47.7004 29.2027 47.7004 28.7135C47.7004 28.2244 47.4338 28.0127 46.8972 28.0127L46.501 28.0273Z" fill="#2F80ED"/>
<path d="M52.5842 31.86C52.2938 31.8708 52.0043 31.8199 51.7345 31.7105C51.4647 31.6011 51.2204 31.4357 51.0175 31.2248C50.8149 31.0024 50.658 30.7413 50.556 30.4568C50.454 30.1722 50.4088 29.87 50.4232 29.5676C50.3957 28.9296 50.6154 28.306 51.0355 27.8301C51.2449 27.6077 51.4989 27.4334 51.7803 27.3188C52.0617 27.2042 52.3641 27.152 52.667 27.1657C52.9548 27.1545 53.2417 27.2053 53.5087 27.3148C53.7757 27.4243 54.0167 27.5899 54.2158 27.8009C54.622 28.2592 54.8341 28.8609 54.8064 29.4764C54.8345 30.11 54.6144 30.7293 54.1942 31.1993C53.9876 31.4191 53.7371 31.5917 53.4595 31.7056C53.1819 31.8195 52.8835 31.8722 52.5842 31.86ZM52.6274 28.0491C52.4655 28.0427 52.3044 28.0759 52.1578 28.1458C52.0111 28.2156 51.8831 28.3202 51.7846 28.4506C51.5635 28.7594 51.4529 29.1354 51.4713 29.5165C51.4497 29.898 51.5605 30.2751 51.7846 30.5824C51.8806 30.7088 52.0047 30.8104 52.1468 30.8789C52.2889 30.9474 52.4449 30.9809 52.6022 30.9766C52.7587 30.9847 52.9149 30.9559 53.0587 30.8926C53.2024 30.8293 53.3297 30.7331 53.4306 30.6116C53.6492 30.3046 53.7573 29.931 53.7367 29.553C53.7585 29.1646 53.6535 28.7797 53.4378 28.4579C53.3469 28.3286 53.2262 28.2238 53.0862 28.1525C52.9463 28.0813 52.7912 28.0458 52.6346 28.0491H52.6274Z" fill="#2F80ED"/>
<path d="M60.5439 31.7798H59.3841L58.707 30.6117C58.6566 30.5241 58.6062 30.4438 58.5594 30.3744C58.5146 30.3111 58.4653 30.2513 58.4117 30.1955C58.3681 30.1493 58.3169 30.111 58.2604 30.0824C58.2064 30.0563 58.1474 30.0426 58.0875 30.0422H57.8138V31.7798H56.809V27.2461H58.4045C59.485 27.2461 60.0324 27.6549 60.0324 28.4762C60.0349 28.6252 60.0118 28.7734 59.964 28.9143C59.8661 29.189 59.6762 29.4202 59.4274 29.5677C59.2985 29.648 59.159 29.7095 59.0132 29.7502C59.084 29.7709 59.1501 29.8057 59.2077 29.8524C59.2727 29.9012 59.333 29.9562 59.3877 30.0167C59.448 30.0815 59.5045 30.1497 59.557 30.2211C59.6074 30.2941 59.6579 30.3671 59.7011 30.4365L60.5439 31.7798ZM57.7958 28.009V29.272H58.2352C58.3297 29.2764 58.4242 29.262 58.5132 29.2294C58.6022 29.1968 58.6839 29.1468 58.7539 29.0822C58.8189 29.0214 58.8704 28.9474 58.9052 28.865C58.94 28.7826 58.9571 28.6936 58.9555 28.604C58.9555 28.2061 58.7214 28.009 58.2532 28.009H57.7958Z" fill="#2F80ED"/>
<path d="M65.3161 28.0747H64.0411V31.7798H63.029V28.0747H61.7612V27.2461H65.3161V28.0747Z" fill="#2F80ED"/>
<path d="M70.6501 31.7798H69.5696L69.2527 30.7723H67.6607L67.3438 31.7798H66.2633L67.8913 27.2461H69.087L70.6501 31.7798ZM69.0042 29.9875L68.5215 28.4726C68.4851 28.3387 68.4598 28.2019 68.4459 28.0638H68.4315C68.4194 28.1989 68.3928 28.3323 68.3523 28.4616L67.866 29.9984L69.0042 29.9875Z" fill="#2F80ED"/>
<path d="M75.0909 31.7798H72.4257V27.2461H73.4306V30.9512H75.0909V31.7798Z" fill="#2F80ED"/>
<path d="M81.0373 30.2174V31.7798H80.0288V27.2461H81.6099C82.7373 27.2461 83.2991 27.7243 83.2991 28.7062C83.3045 28.914 83.2635 29.1204 83.1794 29.31C83.0952 29.4996 82.9699 29.6675 82.8129 29.8013C82.4465 30.0987 81.9851 30.2493 81.5163 30.2247L81.0373 30.2174ZM81.0373 28.0273V29.4436H81.4335C81.9701 29.4436 82.2402 29.2027 82.2402 28.7135C82.2402 28.2244 81.9701 28.0127 81.4335 28.0127L81.0373 28.0273Z" fill="#2F80ED"/>
<path d="M88.8061 31.7798H87.7256L87.4086 30.7723H85.8167L85.4997 31.7798H84.4193L86.0472 27.2461H87.2429L88.8061 31.7798ZM87.1601 29.9875L86.6775 28.4726C86.6376 28.3395 86.6122 28.2024 86.6018 28.0638H86.5766C86.5657 28.1988 86.5404 28.3322 86.501 28.4616L86.0112 29.9984L87.1601 29.9875Z" fill="#2F80ED"/>
<path d="M94.3346 31.7798H93.1749L92.4797 30.6117C92.4293 30.5241 92.3789 30.4438 92.3321 30.3744C92.2873 30.3111 92.238 30.2513 92.1844 30.1955C92.1401 30.1501 92.0891 30.1119 92.0331 30.0824C91.9791 30.0563 91.9201 30.0426 91.8603 30.0422H91.5865V31.7798H90.5781V27.2461H92.1772C93.2577 27.2461 93.8051 27.6549 93.8051 28.4762C93.8082 28.6255 93.7838 28.7741 93.7331 28.9143C93.6868 29.0467 93.6186 29.1701 93.5314 29.2793C93.4421 29.3894 93.3349 29.4832 93.2145 29.5567C93.0853 29.6365 92.9459 29.6979 92.8003 29.7393C92.8711 29.76 92.9372 29.7947 92.9948 29.8415C93.0591 29.8912 93.1193 29.9461 93.1749 30.0057C93.2325 30.0714 93.2901 30.1371 93.3441 30.2101C93.3982 30.2831 93.445 30.3562 93.4882 30.4255L94.3346 31.7798ZM91.5865 28.009V29.272H92.0259C92.1204 29.2764 92.2149 29.262 92.3039 29.2294C92.3929 29.1968 92.4747 29.1468 92.5446 29.0822C92.6096 29.0214 92.6611 28.9474 92.6959 28.865C92.7307 28.7826 92.7478 28.6936 92.7463 28.604C92.7463 28.2061 92.5121 28.009 92.0439 28.009H91.5865Z" fill="#2F80ED"/>
<path d="M100.22 31.7798H99.1212L98.8043 30.7723H97.2123L96.8846 31.7798H95.8041L97.432 27.2461H98.6278L100.22 31.7798ZM98.5738 29.9875L98.0911 28.4726C98.0512 28.3395 98.0259 28.2024 98.0155 28.0638H97.9903C97.9794 28.1988 97.954 28.3322 97.9147 28.4616L97.4248 29.9984L98.5738 29.9875Z" fill="#2F80ED"/>
<path d="M49.4255 39.9197H48.345L48.0281 38.9122H46.4361L46.1192 39.9197H45.0387L46.6667 35.3823H47.8624L49.4255 39.9197ZM47.7796 38.1274L47.2969 36.6015C47.2602 36.4679 47.2361 36.331 47.2249 36.1927H47.1997C47.1893 36.3281 47.1627 36.4617 47.1205 36.5906L46.6342 38.1274H47.7796Z" fill="#2F80ED"/>
<path d="M55.2242 39.9197H54.2086L52.3645 37.0688C52.2827 36.9519 52.2081 36.83 52.1412 36.7037C52.1617 36.9465 52.1701 37.1902 52.1664 37.4338V39.927H51.2156V35.3823H52.2961L54.0717 38.1456C54.1545 38.2697 54.2302 38.3938 54.2986 38.5106C54.2762 38.3046 54.2678 38.0973 54.2734 37.8901V35.3823H55.2242V39.9197Z" fill="#2F80ED"/>
<path d="M61.4082 39.9197H60.3097L59.9928 38.9122H58.4009L58.0875 39.9197H57.007L58.6386 35.3823H59.8307L61.4082 39.9197ZM60.1945 33.9478L59.2184 34.9698H58.4981L59.3193 33.9478H60.1945ZM59.7623 38.1347L59.2797 36.6088C59.2429 36.4752 59.2188 36.3383 59.2076 36.2H59.1824C59.172 36.3354 59.1454 36.469 59.1032 36.5979L58.617 38.1347H59.7623Z" fill="#2F80ED"/>
<path d="M65.8491 39.9197H63.1838V35.3823H64.1923V39.091H65.8491V39.9197Z" fill="#2F80ED"/>
<path d="M68.6548 39.9197H67.6463V35.3823H68.6548V39.9197Z" fill="#2F80ED"/>
<path d="M70.7438 39.7443V38.7331C71.0883 39.0289 71.5241 39.1929 71.9756 39.1967C72.0882 39.1972 72.2006 39.185 72.3105 39.1602C72.3933 39.1424 72.4725 39.1103 72.5446 39.0653C72.6029 39.0282 72.6521 38.9783 72.6887 38.9193C72.7198 38.8637 72.7359 38.8007 72.7355 38.7368C72.7365 38.6514 72.71 38.5681 72.6599 38.4995C72.6031 38.4234 72.5336 38.3579 72.4546 38.306C72.3573 38.2406 72.2549 38.1832 72.1484 38.1345L71.7631 37.9666C71.4623 37.8551 71.1937 37.6694 70.9815 37.4263C70.8097 37.2079 70.7192 36.9353 70.7258 36.6561C70.7201 36.444 70.7685 36.2341 70.8663 36.0465C70.9588 35.8778 71.0897 35.7339 71.248 35.6267C71.4187 35.5137 71.6077 35.4322 71.8063 35.3858C72.0283 35.3337 72.2555 35.3079 72.4834 35.3091C72.6905 35.3081 72.8975 35.3215 73.1029 35.3493C73.2725 35.3758 73.4391 35.4199 73.5999 35.4807V36.4261C73.5219 36.3735 73.4401 36.3271 73.355 36.2874C73.2664 36.2476 73.1748 36.2146 73.0813 36.1889C72.9892 36.1624 72.8953 36.1429 72.8003 36.1305C72.7128 36.1253 72.625 36.1253 72.5374 36.1305C72.4333 36.1294 72.3293 36.1404 72.2277 36.1633C72.1441 36.1807 72.0639 36.2115 71.99 36.2546C71.9297 36.2916 71.8781 36.3414 71.8387 36.4006C71.8026 36.4557 71.7838 36.5206 71.7847 36.5867C71.7845 36.6595 71.8058 36.7307 71.8459 36.7912C71.8909 36.8588 71.9484 36.9171 72.0152 36.9627C72.0976 37.0235 72.1857 37.0761 72.2781 37.1197C72.3825 37.1744 72.5014 37.2255 72.6383 37.2803C72.8043 37.3496 72.9655 37.4301 73.1209 37.5212C73.2537 37.6012 73.3749 37.6995 73.481 37.8132C73.5819 37.9182 73.6614 38.0423 73.7152 38.1783C73.8391 38.5445 73.8172 38.9452 73.6539 39.2953C73.562 39.4656 73.4295 39.6099 73.2685 39.7151C73.095 39.8251 72.9035 39.903 72.7031 39.945C72.4778 39.991 72.2486 40.0143 72.0188 40.0144C71.7843 40.0154 71.5503 39.9934 71.3201 39.9487C71.119 39.9102 70.9247 39.8413 70.7438 39.7443Z" fill="#2F80ED"/>
<path d="M78.4729 39.9197H75.7897V35.3823H78.3684V36.2146H76.7981V37.233H78.2604V38.0616H76.7981V39.0983H78.4729V39.9197Z" fill="#2F80ED"/>
<path d="M83.5116 39.9197V35.3823H85.0963C86.6834 35.3823 87.4782 36.1197 87.4806 37.5944C87.4952 37.9073 87.4447 38.2197 87.3324 38.5115C87.22 38.8033 87.0484 39.0679 86.8287 39.2881C86.5951 39.5037 86.3218 39.6704 86.0246 39.7788C85.7273 39.8871 85.4119 39.935 85.0963 39.9197H83.5116ZM84.5201 36.2146V39.091H85.0171C85.2068 39.1021 85.3966 39.0724 85.5741 39.0038C85.7516 38.9352 85.9129 38.8293 86.0472 38.6932C86.3051 38.3906 86.4346 37.997 86.4073 37.5981C86.4186 37.4119 86.3925 37.2253 86.3306 37.0496C86.2686 36.8739 86.1722 36.7128 86.0472 36.576C85.907 36.4482 85.743 36.35 85.5649 36.2874C85.3867 36.2247 85.1981 36.1987 85.0099 36.2109L84.5201 36.2146Z" fill="#2F80ED"/>
<path d="M92.1484 39.9197H89.4651V35.3823H92.0475V36.2146H90.4736V37.233H91.9359V38.0616H90.4736V39.0983H92.1484V39.9197Z" fill="#2F80ED"/>
<path d="M99.7659 36.2146H98.1884V37.3279H99.6291V38.1566H98.1884V39.9197H97.1799V35.3823H99.7659V36.2146Z" fill="#2F80ED"/>
<path d="M105.446 39.9197H104.365L104.045 38.9122H102.453L102.139 39.9197H101.059L102.647 35.3823H103.843L105.446 39.9197ZM103.796 38.1274L103.317 36.6015C103.277 36.4685 103.252 36.3314 103.241 36.1927H103.216C103.206 36.3281 103.179 36.4617 103.137 36.5906L102.647 38.1274H103.796Z" fill="#2F80ED"/>
<path d="M109.883 39.9197H107.218V35.3823H108.226V39.091H109.883V39.9197Z" fill="#2F80ED"/>
<path d="M115.862 39.9197H114.763L114.443 38.9122H112.851L112.537 39.9197H111.457L113.092 35.3823H114.288L115.862 39.9197ZM114.212 38.1274L113.733 36.6015C113.693 36.4685 113.668 36.3314 113.658 36.1927H113.632C113.621 36.3277 113.596 36.4611 113.557 36.5906L113.067 38.1274H114.212Z" fill="#2F80ED"/>
<path d="M49.2527 21.5077C48.1865 21.5233 47.1385 21.2267 46.2345 20.6535C45.3427 20.0849 44.6147 19.2878 44.1239 18.3429C43.5987 17.323 43.3337 16.186 43.3532 15.0357C43.3359 13.8731 43.627 12.7272 44.196 11.7176C44.7355 10.7544 45.5171 9.9534 46.4614 9.39599C47.4461 8.82019 48.5662 8.52505 49.7029 8.54182C50.8161 8.52384 51.9137 8.80904 52.8811 9.36765C53.8485 9.92626 54.6503 10.7378 55.2026 11.7176C55.7688 12.7282 56.0585 13.8737 56.0418 15.0357H55.145C55.1676 16.1851 54.9064 17.3219 54.385 18.3429C53.8956 19.2876 53.1688 20.0846 52.2781 20.6535C51.3718 21.2275 50.3213 21.5241 49.2527 21.5077ZM49.7029 19.4051C50.4421 19.4183 51.1699 19.2196 51.8027 18.832C52.4127 18.4504 52.9103 17.9095 53.2433 17.266C53.6024 16.5797 53.7845 15.8125 53.7728 15.0357C53.794 14.2512 53.6193 13.474 53.2649 12.7762C52.9319 12.1327 52.4343 11.5918 51.8243 11.2102C51.189 10.835 50.4669 10.6374 49.7317 10.6374C48.9965 10.6374 48.2744 10.835 47.6391 11.2102C47.0141 11.5868 46.5013 12.1279 46.1553 12.7762C45.7849 13.4666 45.5975 14.2426 45.6114 15.0284C45.5993 15.807 45.7867 16.5755 46.1553 17.2587C46.4983 17.9055 47.0072 18.4466 47.6283 18.8247C48.2533 19.2095 48.9716 19.4105 49.7029 19.4051ZM54.8677 21.4383C54.7118 21.4434 54.5566 21.416 54.4116 21.3578C54.2666 21.2996 54.135 21.2118 54.0249 21.0998C53.9148 20.9879 53.8286 20.8542 53.7716 20.7071C53.7146 20.56 53.688 20.4026 53.6935 20.2447V16.671L54.1293 14.1961L56.0418 15.0357V20.2447C56.0465 20.4027 56.0192 20.56 55.9616 20.7069C55.904 20.8538 55.8173 20.9872 55.7068 21.0989C55.5989 21.2097 55.4697 21.2969 55.3273 21.3553C55.1848 21.4137 55.0321 21.4419 54.8785 21.4383H54.8677Z" fill="#2F80ED"/>
<path d="M59.4274 21.4381C59.2715 21.4432 59.1163 21.4157 58.9713 21.3575C58.8263 21.2993 58.6947 21.2115 58.5846 21.0996C58.4745 20.9876 58.3883 20.854 58.3313 20.7069C58.2743 20.5598 58.2477 20.4024 58.2532 20.2444V9.82645C58.2468 9.6669 58.2729 9.50772 58.3299 9.35887C58.3869 9.21001 58.4736 9.07467 58.5846 8.96132C58.8188 8.75191 59.1204 8.63636 59.4328 8.63636C59.7451 8.63636 60.0467 8.75191 60.2809 8.96132C60.3896 9.07585 60.4741 9.21164 60.5292 9.36039C60.5843 9.50914 60.6089 9.66773 60.6015 9.82645V20.2444C60.607 20.4013 60.5815 20.5577 60.5265 20.7044C60.4714 20.8511 60.3879 20.9851 60.2809 21.0986C60.1698 21.2123 60.0365 21.3012 59.8895 21.3596C59.7425 21.4181 59.5851 21.4448 59.4274 21.4381ZM68.8997 21.4381C68.7441 21.4421 68.5894 21.4139 68.4449 21.3553C68.3004 21.2967 68.1692 21.2089 68.0593 21.0972C67.9494 20.9855 67.8632 20.8523 67.8058 20.7056C67.7484 20.559 67.7211 20.4021 67.7256 20.2444V14.4988C67.7561 13.7444 67.5896 12.9952 67.2429 12.3269C66.9419 11.7875 66.4876 11.3524 65.9391 11.0785C65.3526 10.7949 64.7089 10.6537 64.0591 10.666C63.453 10.6583 62.8535 10.7946 62.3087 11.0639C61.813 11.3081 61.3848 11.673 61.0625 12.1261C60.7544 12.5757 60.5932 13.1119 60.6015 13.6593H59.1608C59.1458 12.7336 59.3892 11.8225 59.8632 11.031C60.3363 10.2618 61.0009 9.63238 61.79 9.20589C62.6325 8.7493 63.5756 8.51694 64.5309 8.53059C65.5222 8.51415 66.5018 8.7501 67.3798 9.21685C68.2203 9.68111 68.9087 10.384 69.3607 11.2391C69.8746 12.2536 70.1226 13.3848 70.081 14.5244V20.2444C70.0855 20.4024 70.0581 20.5596 70.0005 20.7065C69.9429 20.8534 69.8563 20.9868 69.7461 21.0985C69.6358 21.2103 69.5042 21.2981 69.3592 21.3564C69.2143 21.4148 69.0592 21.4426 68.9033 21.4381H68.8997Z" fill="#2F80ED"/>
<path d="M77.6985 21.5077C76.6312 21.5234 75.582 21.2268 74.6768 20.6535C73.7852 20.0857 73.0581 19.2884 72.5698 18.3429C72.0434 17.3232 71.7772 16.1863 71.7954 15.0357C71.7782 13.8731 72.0693 12.7272 72.6382 11.7176C73.1817 10.7538 73.967 9.95284 74.9145 9.39599C75.8992 8.82019 77.0192 8.52505 78.156 8.54182C79.2692 8.52384 80.3668 8.80904 81.3342 9.36765C82.3016 9.92626 83.1033 10.7378 83.6557 11.7176C84.2235 12.7275 84.5134 13.8735 84.4949 15.0357H83.5981C83.6207 16.1851 83.3595 17.3219 82.8381 18.3429C82.3498 19.2884 81.6227 20.0857 80.7311 20.6535C79.8229 21.2291 78.7696 21.5257 77.6985 21.5077ZM78.156 19.4051C78.8952 19.4183 79.623 19.2196 80.2557 18.832C80.8669 18.4518 81.3649 17.9106 81.6964 17.266C82.0555 16.5797 82.2376 15.8125 82.2258 15.0357C82.2437 14.2502 82.0653 13.473 81.7072 12.7762C81.3757 12.1316 80.8777 11.5904 80.2665 11.2102C79.6313 10.835 78.9092 10.6374 78.174 10.6374C77.4387 10.6374 76.7167 10.835 76.0814 11.2102C75.4571 11.5878 74.9446 12.1287 74.5975 12.7762C74.2271 13.4666 74.0398 14.2426 74.0537 15.0284C74.0415 15.807 74.2289 16.5755 74.5975 17.2587C74.9416 17.9048 75.4503 18.4456 76.0706 18.8247C76.6987 19.2115 77.421 19.4125 78.156 19.4051ZM83.3207 21.4383C83.1649 21.4434 83.0096 21.416 82.8647 21.3578C82.7197 21.2996 82.5881 21.2118 82.478 21.0998C82.3679 20.9879 82.2817 20.8542 82.2247 20.7071C82.1677 20.56 82.1411 20.4026 82.1466 20.2447V16.671L82.5824 14.1961L84.4949 15.0357V20.2447C84.5004 20.4026 84.4738 20.56 84.4168 20.7071C84.3598 20.8542 84.2736 20.9879 84.1635 21.0998C84.0534 21.2118 83.9218 21.2996 83.7768 21.3578C83.6318 21.416 83.4766 21.4434 83.3207 21.4383Z" fill="#2F80ED"/>
<path d="M89.8289 21.4127C89.1856 21.423 88.5555 21.2276 88.0281 20.8542C87.4909 20.4652 87.0667 19.9369 86.7999 19.3248C86.4971 18.6208 86.3484 17.8586 86.3641 17.0908V4.33663C86.3575 4.18144 86.3827 4.02655 86.4383 3.88178C86.4939 3.73702 86.5785 3.60555 86.6869 3.49571C86.7953 3.38587 86.925 3.30007 87.0679 3.24374C87.2107 3.18742 87.3635 3.16181 87.5166 3.16853C87.6696 3.16236 87.8222 3.18836 87.9648 3.24488C88.1074 3.3014 88.2369 3.38722 88.3451 3.49694C88.4534 3.60666 88.5381 3.73791 88.5938 3.88242C88.6496 4.02693 88.6752 4.18158 88.6692 4.33663V17.0908C88.6492 17.5869 88.7599 18.0795 88.9897 18.518C89.064 18.6799 89.1811 18.8177 89.3279 18.9163C89.4748 19.0148 89.6457 19.0703 89.8217 19.0765H90.4016C90.5426 19.0723 90.6828 19.0995 90.8122 19.1562C90.9417 19.213 91.0572 19.298 91.1507 19.4051C91.3473 19.6384 91.4501 19.9381 91.4388 20.2446C91.44 20.411 91.4005 20.5751 91.3238 20.7223C91.2471 20.8694 91.1357 20.995 90.9994 21.0879C90.6684 21.3173 90.2727 21.4313 89.8721 21.4127H89.8289Z" fill="#2F80ED"/>
<path d="M93.7223 6.57058C93.5207 6.5754 93.3204 6.53727 93.1343 6.45867C92.9482 6.38007 92.7804 6.26275 92.6418 6.11429C92.4967 5.97233 92.3813 5.8022 92.3025 5.61405C92.2237 5.42591 92.1831 5.2236 92.1831 5.0192C92.1831 4.81481 92.2237 4.6125 92.3025 4.42436C92.3813 4.23621 92.4967 4.06608 92.6418 3.92411C92.8555 3.7106 93.1266 3.56577 93.4211 3.50781C93.7156 3.44984 94.0205 3.48131 94.2975 3.59827C94.5744 3.71523 94.8112 3.91247 94.978 4.16525C95.1447 4.41804 95.2342 4.71511 95.235 5.0192C95.2332 5.42694 95.0738 5.81771 94.791 6.10772C94.5082 6.39774 94.1246 6.5639 93.7223 6.57058ZM93.7223 21.4273C93.5667 21.4305 93.4121 21.4012 93.2681 21.3414C93.1241 21.2816 92.9937 21.1925 92.885 21.0796C92.7763 20.9667 92.6916 20.8324 92.6362 20.685C92.5807 20.5376 92.5557 20.3803 92.5626 20.2227V9.82665C92.5559 9.66676 92.5823 9.50723 92.64 9.35827C92.6977 9.2093 92.7854 9.07417 92.8975 8.96153C93.0616 8.78706 93.2743 8.66738 93.5071 8.61843C93.74 8.56949 93.982 8.59359 94.201 8.68753C94.4201 8.78147 94.6056 8.94079 94.7331 9.14429C94.8605 9.34779 94.9238 9.5858 94.9145 9.82665V20.2227C94.9193 20.3798 94.8932 20.5363 94.8375 20.683C94.7818 20.8297 94.6978 20.9636 94.5903 21.0769C94.4768 21.1912 94.3409 21.2802 94.1914 21.338C94.0419 21.3958 93.8821 21.4213 93.7223 21.4127V21.4273Z" fill="#2F80ED"/>
<path d="M102.147 21.5076C101.131 21.5178 100.122 21.3473 99.1644 21.0039C98.3704 20.7439 97.6426 20.3102 97.0322 19.7336C96.922 19.6237 96.8385 19.4893 96.7885 19.3411C96.7385 19.1928 96.7233 19.0347 96.7441 18.8794C96.7608 18.7249 96.8092 18.5756 96.8861 18.4411C96.963 18.3066 97.0667 18.1898 97.1907 18.0983C97.313 17.9849 97.4571 17.8982 97.6138 17.8436C97.7705 17.789 97.9367 17.7676 98.1019 17.7807C98.399 17.8187 98.6726 17.9638 98.8727 18.1895C99.2297 18.5503 99.6564 18.8324 100.126 19.0181C100.734 19.2838 101.391 19.4156 102.053 19.4051C102.759 19.4486 103.463 19.2946 104.088 18.9597C104.295 18.8482 104.47 18.6845 104.596 18.4843C104.722 18.2842 104.795 18.0544 104.808 17.8172C104.809 17.5746 104.749 17.3357 104.634 17.1231C104.518 16.9104 104.352 16.731 104.149 16.6016C103.695 16.2585 102.869 15.9787 101.671 15.7621C100.12 15.4481 98.9952 14.9809 98.2964 14.3604C97.9629 14.0825 97.6952 13.7323 97.5131 13.3355C97.3311 12.9387 97.2394 12.5055 97.2447 12.068C97.2197 11.3457 97.467 10.6409 97.9363 10.0968C98.4199 9.56004 99.0312 9.15787 99.7119 8.92871C100.437 8.66987 101.201 8.539 101.97 8.54178C102.893 8.5242 103.809 8.69168 104.668 9.03457C105.394 9.3173 106.038 9.78345 106.537 10.3888C106.735 10.5988 106.842 10.8797 106.836 11.17C106.826 11.3075 106.785 11.441 106.717 11.5604C106.65 11.6799 106.556 11.7823 106.443 11.8599C106.316 11.9461 106.173 12.005 106.022 12.0333C105.872 12.0615 105.717 12.0584 105.568 12.0242C105.25 11.9708 104.953 11.825 104.715 11.6044C104.365 11.2511 103.938 10.9861 103.468 10.8305C102.968 10.6838 102.448 10.6137 101.927 10.6225C101.334 10.609 100.746 10.7339 100.209 10.9875C100.003 11.0656 99.8249 11.2057 99.6994 11.389C99.5739 11.5723 99.5066 11.7901 99.5066 12.0132C99.5034 12.2823 99.5786 12.5464 99.7227 12.7725C99.9475 13.0568 100.249 13.2686 100.591 13.3821C101.203 13.6133 101.835 13.7892 102.478 13.9077C103.425 14.0731 104.346 14.3717 105.212 14.7947C105.791 15.0763 106.288 15.5067 106.652 16.0431C106.949 16.5388 107.1 17.1099 107.088 17.6894C107.097 18.3797 106.9 19.0566 106.523 19.6314C106.108 20.238 105.534 20.7147 104.866 21.0076C104.005 21.3704 103.078 21.541 102.147 21.5076Z" fill="#2F80ED"/>
<path d="M114.605 21.5076C113.42 21.5291 112.25 21.2439 111.205 20.679C110.237 20.1462 109.432 19.3545 108.878 18.3903C108.309 17.3679 108.023 16.209 108.05 15.0356C108.026 13.8597 108.3 12.6972 108.846 11.6591C109.358 10.7062 110.12 9.91443 111.046 9.37037C112.034 8.80433 113.154 8.51811 114.288 8.54175C115.372 8.51166 116.443 8.79121 117.378 9.34846C118.233 9.87957 118.917 10.6505 119.348 11.5678C119.818 12.5872 120.051 13.7025 120.029 14.8276C120.032 14.9636 120.007 15.0988 119.955 15.2246C119.904 15.3503 119.827 15.4637 119.73 15.5576C119.629 15.6551 119.509 15.7312 119.379 15.7813C119.248 15.8315 119.109 15.8547 118.97 15.8497H109.678V13.9843H118.855L117.911 14.6378C117.909 13.9161 117.751 13.2036 117.45 12.5498C117.173 11.9311 116.72 11.4105 116.149 11.0547C115.577 10.699 114.914 10.5243 114.245 10.5531C113.462 10.5328 112.688 10.7338 112.012 11.1335C111.396 11.5169 110.904 12.0737 110.596 12.7359C110.263 13.4548 110.097 14.2415 110.11 15.0356C110.097 15.837 110.296 16.6273 110.686 17.3244C111.066 17.9904 111.616 18.5402 112.278 18.9159C112.99 19.3132 113.792 19.5145 114.605 19.5C115.105 19.4953 115.601 19.4039 116.071 19.2298C116.502 19.0845 116.91 18.8754 117.281 18.6093C117.498 18.4447 117.759 18.3517 118.03 18.3428C118.292 18.3264 118.551 18.4141 118.75 18.5874C118.863 18.6803 118.957 18.7955 119.025 18.926C119.093 19.0565 119.134 19.1996 119.146 19.3466C119.153 19.4893 119.123 19.6313 119.06 19.759C118.997 19.8868 118.903 19.9961 118.786 20.0767C118.2 20.5304 117.541 20.8774 116.838 21.1024C116.12 21.3606 115.366 21.4975 114.605 21.5076Z" fill="#2F80ED"/>
<path d="M18.8727 7.78247e-09C14.6345 -0.000119881 10.5093 1.38493 7.10948 3.94952C3.70964 6.51411 1.21643 10.1215 0 14.2362C0.238904 14.1178 0.503594 14.0631 0.769144 14.0771C1.03469 14.091 1.29237 14.1733 1.5179 14.316C1.74343 14.4588 1.92939 14.6574 2.05828 14.8931C2.18717 15.1289 2.25474 15.3939 2.25464 15.6634V27.2203C2.255 27.5555 2.15066 27.8823 1.95657 28.1538C1.76248 28.4252 1.48859 28.6275 1.17414 28.7315C2.71796 31.9321 5.07869 34.6556 8.01138 36.6195C10.9441 38.5835 14.3419 39.7162 17.8522 39.9003C21.3626 40.0844 24.8576 39.3131 27.9746 37.6665C31.0917 36.0198 33.7171 33.5578 35.5786 30.5358C37.4402 27.5139 38.4699 24.0421 38.561 20.4808C38.652 16.9195 37.8012 13.3983 36.0966 10.2827C34.3921 7.16705 31.896 4.57047 28.8673 2.76236C25.8386 0.954239 22.3877 0.000466604 18.8727 7.78247e-09V7.78247e-09ZM6.89357 28.3993C6.87426 28.8078 6.70057 29.193 6.40853 29.4752C6.11649 29.7573 5.72851 29.9147 5.32505 29.9147C4.92159 29.9147 4.53361 29.7573 4.24157 29.4752C3.94953 29.193 3.77585 28.8078 3.75653 28.3993V11.3159C3.77585 10.9075 3.94953 10.5223 4.24157 10.2401C4.53361 9.95799 4.92159 9.8006 5.32505 9.8006C5.72851 9.8006 6.11649 9.95799 6.40853 10.2401C6.70057 10.5223 6.87426 10.9075 6.89357 11.3159V28.3993ZM11.4605 32.1227C11.4412 32.5311 11.2675 32.9163 10.9754 33.1985C10.6834 33.4806 10.2954 33.638 9.89195 33.638C9.48849 33.638 9.10051 33.4806 8.80847 33.1985C8.51643 32.9163 8.34275 32.5311 8.32343 32.1227V7.78974C8.34275 7.3813 8.51643 6.99607 8.80847 6.71393C9.10051 6.4318 9.48849 6.27441 9.89195 6.27441C10.2954 6.27441 10.6834 6.4318 10.9754 6.71393C11.2675 6.99607 11.4412 7.3813 11.4605 7.78974V32.1227ZM16.0958 29.6076C16.106 29.8228 16.073 30.0378 15.9987 30.2396C15.9245 30.4415 15.8106 30.626 15.6639 30.7819C15.5173 30.9378 15.3409 31.062 15.1456 31.1468C14.9502 31.2316 14.7398 31.2753 14.5273 31.2753C14.3147 31.2753 14.1044 31.2316 13.909 31.1468C13.7136 31.062 13.5373 30.9378 13.3906 30.7819C13.244 30.626 13.1301 30.4415 13.0559 30.2396C12.9816 30.0378 12.9486 29.8228 12.9588 29.6076V12.5315C12.9781 12.123 13.1518 11.7378 13.4438 11.4557C13.7358 11.1735 14.1238 11.0162 14.5273 11.0162C14.9307 11.0162 15.3187 11.1735 15.6108 11.4557C15.9028 11.7378 16.0765 12.123 16.0958 12.5315V29.6076ZM20.4574 25.6324C20.4381 26.0409 20.2644 26.4261 19.9724 26.7082C19.6803 26.9904 19.2924 27.1478 18.8889 27.1478C18.4854 27.1478 18.0975 26.9904 17.8054 26.7082C17.5134 26.4261 17.3397 26.0409 17.3204 25.6324V14.0829C17.3397 13.6744 17.5134 13.2892 17.8054 13.0071C18.0975 12.7249 18.4854 12.5675 18.8889 12.5675C19.2924 12.5675 19.6803 12.7249 19.9724 13.0071C20.2644 13.2892 20.4381 13.6744 20.4574 14.0829V25.6324ZM24.6858 23.2086C24.6959 23.4238 24.6629 23.6388 24.5887 23.8407C24.5144 24.0425 24.4005 24.227 24.2539 24.3829C24.1072 24.5389 23.9309 24.663 23.7355 24.7478C23.5401 24.8326 23.3298 24.8763 23.1172 24.8763C22.9047 24.8763 22.6944 24.8326 22.499 24.7478C22.3036 24.663 22.1272 24.5389 21.9806 24.3829C21.8339 24.227 21.72 24.0425 21.6458 23.8407C21.5716 23.6388 21.5385 23.4238 21.5487 23.2086V18.3355C21.568 17.927 21.7417 17.5418 22.0338 17.2597C22.3258 16.9775 22.7138 16.8201 23.1172 16.8201C23.5207 16.8201 23.9087 16.9775 24.2007 17.2597C24.4928 17.5418 24.6664 17.927 24.6858 18.3355V23.2086ZM28.9105 21.3032C28.9105 21.7243 28.7454 22.1282 28.4516 22.426C28.1578 22.7237 27.7593 22.891 27.3438 22.891C26.9283 22.891 26.5298 22.7237 26.2359 22.426C25.9421 22.1282 25.7771 21.7243 25.7771 21.3032V20.2409C25.7771 19.8198 25.9421 19.4159 26.2359 19.1181C26.5298 18.8203 26.9283 18.653 27.3438 18.653C27.7593 18.653 28.1578 18.8203 28.4516 19.1181C28.7454 19.4159 28.9105 19.8198 28.9105 20.2409V21.3032Z" fill="#2F80ED"/>
</g>
<defs>
<clipPath id="clip0_1245_1753">
<rect width="120" height="40" fill="white"/>
</clipPath>
</defs>
</svg>
