<svg width="16" height="16" viewBox="0 0 16 16" fill="none" xmlns="http://www.w3.org/2000/svg">
<path d="M8.66666 6.00008L7.33332 6.00008L7.33332 4.66674L8.66666 4.66674L8.66666 6.00008ZM8.66666 11.3334L7.33332 11.3334L7.33332 7.33341L8.66666 7.33341L8.66666 11.3334ZM8.00666 14.6667C11.6867 14.6667 14.6667 11.6801 14.6667 8.00008C14.6667 4.32008 11.6867 1.33341 8.00666 1.33341C4.31999 1.33341 1.33332 4.32008 1.33332 8.00008C1.33332 11.6801 4.31999 14.6667 8.00666 14.6667ZM7.99999 2.66674C10.9467 2.66674 13.3333 5.05341 13.3333 8.00008C13.3333 10.9467 10.9467 13.3334 7.99999 13.3334C5.05332 13.3334 2.66666 10.9467 2.66666 8.00008C2.66666 5.05341 5.05332 2.66674 7.99999 2.66674Z" fill="#2F80ED"/>
</svg>
